<svg xmlns="http://www.w3.org/2000/svg" viewBox="0 0 1920 1080" preserveAspectRatio="xMidYMid slice">
  <defs>
    <linearGradient id="stageOneSky" x1="0" y1="0" x2="0" y2="1">
      <stop offset="0" stop-color="#040920" />
      <stop offset="0.55" stop-color="#091532" />
      <stop offset="1" stop-color="#111a3a" />
    </linearGradient>
    <linearGradient id="stageOneMist" x1="0" y1="0" x2="0" y2="1">
      <stop offset="0" stop-color="#5fa0ff" stop-opacity="0.28" />
      <stop offset="1" stop-color="#18255a" stop-opacity="0.05" />
    </linearGradient>
    <linearGradient id="stageOneHighlightBlue" x1="0" y1="0" x2="0" y2="1">
      <stop offset="0" stop-color="#73d8ff" stop-opacity="0.9" />
      <stop offset="1" stop-color="#2475ff" stop-opacity="0.35" />
    </linearGradient>
    <linearGradient id="stageOneHighlightPink" x1="0" y1="0" x2="0" y2="1">
      <stop offset="0" stop-color="#ff9adf" stop-opacity="0.88" />
      <stop offset="1" stop-color="#ff4fbf" stop-opacity="0.35" />
    </linearGradient>
    <linearGradient id="stageOneGlow" x1="0" y1="0" x2="1" y2="0">
      <stop offset="0" stop-color="#36a7ff" stop-opacity="0.45" />
      <stop offset="1" stop-color="#8b3bff" stop-opacity="0" />
    </linearGradient>
    <filter id="soft" x="-50%" y="-50%" width="200%" height="200%">
      <feGaussianBlur stdDeviation="45" result="blur" />
    </filter>
  </defs>

  <rect width="1920" height="1080" fill="url(#stageOneSky)" />
  <rect width="1920" height="1080" fill="url(#stageOneMist)" opacity="0.5" />

  <g opacity="0.35">
    <rect x="180" y="200" width="16" height="420" fill="#58c2ff" opacity="0.55" />
    <rect x="280" y="340" width="20" height="310" fill="#ff7fd4" opacity="0.45" />
    <rect x="410" y="260" width="18" height="380" fill="#58c2ff" opacity="0.5" />
    <rect x="540" y="220" width="14" height="420" fill="#ff7fd4" opacity="0.55" />
    <rect x="680" y="260" width="16" height="380" fill="#58c2ff" opacity="0.6" />
    <rect x="820" y="230" width="22" height="410" fill="#ff7fd4" opacity="0.5" />
    <rect x="990" y="270" width="18" height="360" fill="#58c2ff" opacity="0.58" />
    <rect x="1140" y="240" width="20" height="390" fill="#ff7fd4" opacity="0.48" />
    <rect x="1300" y="210" width="16" height="420" fill="#58c2ff" opacity="0.55" />
    <rect x="1440" y="260" width="20" height="370" fill="#ff7fd4" opacity="0.52" />
    <rect x="1580" y="240" width="17" height="400" fill="#58c2ff" opacity="0.54" />
    <rect x="1700" y="280" width="15" height="360" fill="#ff7fd4" opacity="0.5" />
  </g>

  <g opacity="0.08">
    <rect x="0" y="420" width="1920" height="360" fill="#091734" />
    <rect x="0" y="700" width="1920" height="240" fill="#050a18" />
  </g>

  <g filter="url(#soft)">
    <rect x="-120" y="120" width="420" height="420" fill="url(#stageOneGlow)" opacity="0.6" />
    <rect x="1420" y="180" width="360" height="380" fill="url(#stageOneGlow)" opacity="0.55" />
  </g>

  <g fill="#f9fbff" opacity="0.08">
    <circle cx="180" cy="180" r="6" />
    <circle cx="420" cy="140" r="4" />
    <circle cx="720" cy="190" r="5" />
    <circle cx="940" cy="150" r="4" />
    <circle cx="1180" cy="130" r="5" />
    <circle cx="1420" cy="170" r="4" />
    <circle cx="1660" cy="150" r="5" />
  </g>
</svg>
