<svg xmlns="http://www.w3.org/2000/svg" viewBox="0 0 1920 1080" preserveAspectRatio="xMidYMid slice">
  <defs>
    <linearGradient id="stageTwoSky" x1="0" y1="0" x2="0" y2="1">
      <stop offset="0" stop-color="#050310" />
      <stop offset="0.45" stop-color="#0b1028" />
      <stop offset="1" stop-color="#151a32" />
    </linearGradient>
    <linearGradient id="stageTwoGlowBlue" x1="0" y1="0" x2="1" y2="0">
      <stop offset="0" stop-color="#3ab4ff" stop-opacity="0.8" />
      <stop offset="1" stop-color="#1f3bff" stop-opacity="0.2" />
    </linearGradient>
    <linearGradient id="stageTwoGlowPink" x1="1" y1="0" x2="0" y2="0">
      <stop offset="0" stop-color="#ff7bce" stop-opacity="0.8" />
      <stop offset="1" stop-color="#a73bff" stop-opacity="0.15" />
    </linearGradient>
    <linearGradient id="stageTwoFloor" x1="0" y1="0" x2="0" y2="1">
      <stop offset="0" stop-color="#091532" stop-opacity="0.3" />
      <stop offset="1" stop-color="#02040c" stop-opacity="0.95" />
    </linearGradient>
    <linearGradient id="stageTwoPanel" x1="0" y1="0" x2="0" y2="1">
      <stop offset="0" stop-color="#101a38" />
      <stop offset="1" stop-color="#050712" />
    </linearGradient>
    <linearGradient id="stageTwoDetailBlue" x1="0" y1="0" x2="0" y2="1">
      <stop offset="0" stop-color="#7ad8ff" stop-opacity="0.9" />
      <stop offset="1" stop-color="#2e7dff" stop-opacity="0.35" />
    </linearGradient>
    <linearGradient id="stageTwoDetailPink" x1="0" y1="0" x2="0" y2="1">
      <stop offset="0" stop-color="#ff94e5" stop-opacity="0.9" />
      <stop offset="1" stop-color="#ff52c3" stop-opacity="0.38" />
    </linearGradient>
    <filter id="stageTwoBlur" x="-60%" y="-60%" width="220%" height="220%">
      <feGaussianBlur stdDeviation="65" />
    </filter>
  </defs>

  <rect width="1920" height="1080" fill="url(#stageTwoSky)" />

  <g filter="url(#stageTwoBlur)">
    <rect x="-180" y="120" width="560" height="520" fill="url(#stageTwoGlowBlue)" opacity="0.6" />
    <rect x="1440" y="60" width="460" height="540" fill="url(#stageTwoGlowPink)" opacity="0.55" />
  </g>

  <rect x="0" y="520" width="1920" height="560" fill="url(#stageTwoFloor)" />

  <g opacity="0.6">
    <rect x="260" y="260" width="24" height="340" fill="url(#stageTwoDetailBlue)" />
    <rect x="390" y="220" width="22" height="380" fill="url(#stageTwoDetailPink)" />
    <rect x="560" y="250" width="18" height="350" fill="url(#stageTwoDetailBlue)" />
    <rect x="710" y="270" width="20" height="330" fill="url(#stageTwoDetailPink)" />
    <rect x="860" y="240" width="18" height="360" fill="url(#stageTwoDetailBlue)" />
    <rect x="1010" y="230" width="24" height="370" fill="url(#stageTwoDetailPink)" />
    <rect x="1180" y="260" width="18" height="340" fill="url(#stageTwoDetailBlue)" />
    <rect x="1320" y="220" width="22" height="380" fill="url(#stageTwoDetailPink)" />
    <rect x="1480" y="250" width="20" height="360" fill="url(#stageTwoDetailBlue)" />
    <rect x="1630" y="280" width="18" height="330" fill="url(#stageTwoDetailPink)" />
  </g>

  <g opacity="0.25">
    <rect x="220" y="520" width="1480" height="240" rx="22" fill="url(#stageTwoPanel)" />
    <rect x="180" y="620" width="1560" height="120" rx="18" fill="url(#stageTwoPanel)" opacity="0.4" />
    <rect x="240" y="780" width="1440" height="90" rx="14" fill="url(#stageTwoPanel)" opacity="0.32" />
  </g>

  <g fill="#8ed1ff" opacity="0.12">
    <circle cx="200" cy="160" r="6" />
    <circle cx="480" cy="110" r="5" />
    <circle cx="760" cy="140" r="4" />
    <circle cx="1040" cy="120" r="6" />
    <circle cx="1320" cy="140" r="5" />
    <circle cx="1600" cy="100" r="6" />
  </g>
</svg>
